<svg width="78" height="33" viewBox="0 0 78 33" fill="none" xmlns="http://www.w3.org/2000/svg">
<path d="M74.5169 0.738281L72.2799 0.761541C72.2799 0.761541 70.1514 1.06601 70.1753 5.65233C70.1764 5.87902 69.916 6.80951 69.5965 7.48686C69.1593 8.41393 68.3111 9.77887 65.8848 10.7776L74.6462 10.8631L74.5169 0.738281Z" fill="#BED219"/>
<path d="M67.8574 10.8455C71.3194 10.3053 71.5938 4.99324 71.5963 4.93645C71.6168 3.50126 71.9849 2.5158 72.6901 2.0111C73.525 1.41335 74.5109 1.72329 74.5527 1.73674L74.4824 1.95364C74.4728 1.9509 73.5613 1.66627 72.8207 2.19789C72.1792 2.65857 71.8437 3.58222 71.8243 4.94307C71.8218 5.00168 71.5673 9.94583 68.4399 10.9434L67.8574 10.8455Z" fill="white"/>
<path d="M70.8828 10.8324C72.5837 11.0026 73.0487 6.08281 73.173 5.28437C73.3059 4.42913 73.8001 3.89706 74.5413 4.10597L74.4273 10.7964L70.7402 10.7959" fill="#2DAA19"/>
<path d="M71.1855 10.7966C72.5154 9.98611 72.8789 6.81309 73.0126 5.65477C73.0322 5.48418 73.0475 5.35122 73.0607 5.26684C73.1451 4.72382 73.3706 4.30988 73.6956 4.10121C73.9453 3.94134 74.2489 3.90531 74.5727 3.9963L74.5109 4.21593C74.248 4.14158 74.0147 4.16803 73.819 4.29324C73.5496 4.46611 73.3603 4.8244 73.2862 5.30196C73.2732 5.38429 73.2584 5.51451 73.2392 5.68099C73.0958 6.92233 72.7642 9.79454 71.5336 10.8325L71.1855 10.7966Z" fill="white"/>
<path d="M23.3717 3.70508C23.9555 4.17831 24.3776 5.67416 24.6867 6.47352C25.0611 7.4421 25.4363 8.3849 26.043 9.16761C26.614 9.90448 27.4227 10.2749 28.207 9.8372C29.026 9.37994 29.5572 7.65625 30.4384 7.57939C31.2323 7.51029 31.932 8.93431 32.2583 9.71679C32.5854 10.5011 33.4112 12.0576 33.3528 12.9128C32.9754 13.005 32.5842 12.7484 32.192 12.7226C31.7397 12.693 31.391 12.8713 30.97 12.9231C30.1189 13.0273 29.1679 12.9765 28.3133 12.9231C27.3313 12.8618 26.3248 12.8561 25.3262 12.8563C24.7435 12.8565 24.0132 12.8795 23.3555 12.8533L23.3717 3.70508Z" fill="#FA7828"/>
<path d="M23.0352 5.87935C23.1819 5.88026 23.4247 5.86521 23.5454 5.95416C23.6455 6.02805 23.6699 6.19545 23.7123 6.30446C23.8163 6.57243 23.9235 6.83539 24.0405 7.10154C24.2791 7.64387 24.4962 8.19372 24.7135 8.76593C25.0916 9.7621 25.5366 11.006 26.551 11.489C27.0701 11.7362 27.6373 11.64 28.0868 11.3036C28.5025 10.9923 28.7313 10.4759 29.0437 10.0638C29.3318 9.68388 29.8248 9.0583 30.3681 9.22274C30.9319 9.39333 31.2977 10.0695 31.6343 10.5204C31.8788 10.8479 31.9702 11.25 32.1203 11.616C32.2197 11.8582 32.3299 12.1064 32.4197 12.3501C32.4902 12.5415 32.6832 12.7235 32.6683 12.926L23.1714 12.8528C23.1714 12.8528 22.7668 12.3937 22.7118 12.0664C22.6051 11.4292 22.6635 10.7544 22.6635 10.1097C22.6635 9.33791 22.6671 8.5657 22.6454 7.79507C22.634 7.38753 22.5009 6.61485 22.876 6.3227" fill="#A5411E"/>
<path d="M32.5146 12.852C32.3853 12.5391 32.2439 12.229 32.1191 11.9551C32.0204 11.7387 31.931 11.5421 31.863 11.379C31.2947 10.0163 30.6659 9.26122 30.1505 9.3066C29.706 9.34537 29.3283 9.89751 28.9632 10.4314C28.6583 10.8773 28.3429 11.3384 27.9618 11.5512C27.193 11.9804 26.333 11.72 25.662 10.854C25.025 10.0323 24.6348 9.02335 24.2907 8.13323C24.2277 7.97039 24.16 7.77859 24.0872 7.57242C23.8183 6.81069 23.45 5.76754 23.0078 5.40926L23.1417 5.24414C23.6304 5.64028 23.9949 6.67249 24.2875 7.50172C24.3595 7.70584 24.4264 7.89536 24.4888 8.0566C24.8277 8.93327 25.212 9.9267 25.8299 10.724C26.431 11.4992 27.1886 11.7391 27.8582 11.3658C28.1958 11.1774 28.4968 10.7372 28.7878 10.3114C29.181 9.73673 29.5874 9.14239 30.132 9.09496C30.938 9.02312 31.624 10.254 32.0591 11.2974C32.1264 11.4588 32.2149 11.6529 32.3125 11.867C32.438 12.1423 32.5803 12.4545 32.7109 12.7709L32.5146 12.852Z" fill="white"/>
<path d="M28.1379 12.9792L27.9785 12.8385C28.158 12.6353 28.3318 12.381 28.5001 12.1352C28.893 11.5605 29.2995 10.9661 29.8441 10.9187C30.5755 10.8564 31.209 11.8852 31.6131 12.7605L31.4202 12.8495C30.8895 11.6996 30.3378 11.0893 29.8628 11.1303C29.4183 11.1691 29.0408 11.721 28.6755 12.2551C28.5037 12.5062 28.3261 12.7662 28.1379 12.9792Z" fill="white"/>
<path d="M25.5943 12.9321C25.5186 12.8541 25.4447 12.7685 25.3749 12.6782C24.7379 11.8565 24.3477 10.8476 24.0036 9.95744C23.9406 9.79461 23.8729 9.60281 23.8001 9.39664C23.5312 8.63491 23.1629 7.59176 22.7207 7.23348L22.8546 7.06836C23.3433 7.4645 23.7078 8.49671 24.0004 9.32594C24.0724 9.53005 24.1392 9.71958 24.2017 9.88082C24.5406 10.7575 24.9249 11.7509 25.5427 12.5482C25.608 12.6324 25.6768 12.712 25.7471 12.7845L25.5943 12.9321Z" fill="white"/>
<path d="M42.3711 14.9734C42.3994 14.9734 42.4555 14.9734 42.4838 14.9734C43.1595 14.9734 43.7792 15.1424 44.3425 15.4804C45.5815 16.2971 46.3138 17.8741 47.0179 19.4511C48.0038 21.6196 49.1019 24.1823 51.8619 24.1823C53.101 24.1823 53.27 23.1683 53.27 22.6896C53.27 22.3799 53.2136 21.8449 52.9039 21.0562C52.8759 20.9999 52.8195 20.8872 52.8195 20.8592C47.6097 8.77785 47.5253 8.55253 46.1733 5.39844C45.7227 6.4685 44.6807 9.20022 43.526 12.0727C43.1315 13.0583 42.7371 14.0157 42.3711 14.9734Z" fill="#00C8FF"/>
<path d="M44.9744 7.95433C45.0015 7.95433 43.7422 11.211 43.7422 11.211C43.7422 11.211 44.7238 11.4218 45.2656 11.6927C46.4573 12.3477 47.1437 13.8278 47.8209 15.0927C48.7689 16.8319 49.9117 20.6811 52.9511 20.4637L46.257 4.94141C46.257 4.94141 45.3265 7.18645 44.9744 7.95433Z" fill="#87EBFA"/>
<path d="M10.7581 10.3565L5.04129 3.0063C4.61892 2.44299 4.42188 1.99234 4.42188 1.59824C4.42188 1.57019 4.42188 1.54191 4.42188 1.51386C4.44993 1.11954 4.81619 0.89445 5.52022 0.837891C5.57655 0.837891 5.60461 0.837891 5.66094 0.837891C7.68864 0.837891 8.9277 2.66831 10.0541 4.63968C10.6174 5.70974 11.4058 7.08975 12.4198 7.23046C12.5042 7.25851 12.5605 7.25851 12.6451 7.25851C12.8704 7.25851 13.0675 7.20218 13.2928 7.08951L10.7581 10.3565Z" fill="#FFB400"/>
<path d="M52.1778 23.3785C49.4131 23.3785 48.2933 20.912 47.3055 18.7356L47.2373 18.5851C46.5885 17.1316 45.8535 15.485 44.6003 14.659C44.06 14.3349 43.4531 14.1696 42.8002 14.1696H42.6875V13.957H42.8002C43.4921 13.957 44.1359 14.1326 44.7134 14.4791C46.0222 15.3416 46.7707 17.0183 47.4312 18.4977L47.4992 18.6478C48.4604 20.7656 49.5499 23.1659 52.1778 23.1659C53.3528 23.1659 53.4796 22.1964 53.4796 21.7796H53.6922C53.6922 22.1547 53.5829 23.3785 52.1778 23.3785Z" fill="white"/>
<path d="M52.6661 22.1207C49.9013 22.1207 48.7815 19.6542 47.7938 17.4778L47.7256 17.3273C47.0768 15.8738 46.3417 14.2272 45.0885 13.4012C44.5483 13.0771 43.9414 12.9118 43.2884 12.9118H43.1758V12.6992H43.2884C43.9804 12.6992 44.6242 12.8748 45.2017 13.2213C46.5105 14.0838 47.259 15.7605 47.9195 17.2399L47.9874 17.39C48.9487 19.5078 50.0382 21.9081 52.6661 21.9081C53.8411 21.9081 53.9679 20.9386 53.9679 20.5217H54.1805C54.1805 20.8967 54.0712 22.1207 52.6661 22.1207Z" fill="white"/>
<path d="M52.9686 20.6005C50.2038 20.6005 49.084 18.134 48.0963 15.9576L48.0281 15.8071C47.3793 14.3537 46.6442 12.7071 45.391 11.881C44.8893 11.5802 44.3303 11.416 43.7301 11.3941C43.684 11.3925 43.7189 11.1807 43.7823 11.1836C44.4017 11.213 44.9803 11.3868 45.5042 11.7011C46.813 12.5636 47.5615 14.2403 48.222 15.7198L48.2899 15.8698C49.2512 17.9876 50.3407 20.388 52.9686 20.388C54.1436 20.388 54.2704 19.4185 54.2704 19.0016H54.483C54.4827 19.3767 54.3737 20.6005 52.9686 20.6005Z" fill="white"/>
<path d="M53.6583 19.2457C50.8935 19.2457 49.7737 16.7792 48.786 14.6028L48.7178 14.4523C48.069 12.9988 47.3339 11.3522 46.0807 10.5262C45.5404 10.2021 44.9336 10.0368 44.2806 10.0368H44.168V9.82422H44.2806C44.9726 9.82422 45.6164 9.99983 46.1938 10.3463C47.5027 11.2088 48.2512 12.8855 48.9117 14.3649L48.9796 14.515C49.9409 16.6328 51.0304 19.0331 53.6583 19.0331C54.8333 19.0331 54.9601 18.0636 54.9601 17.6467H55.1727C55.1727 18.0219 55.0634 19.2457 53.6583 19.2457Z" fill="white"/>
<path d="M10.776 10.4728C10.776 10.4728 11.6621 9.53799 11.6621 9.4023C11.6621 8.21638 10.464 7.16798 9.27811 7.16798C8.73213 7.16798 8.61514 7.16136 8.23633 7.49707L10.776 10.4728Z" fill="#FF7D00"/>
<path d="M57.431 22.3845L57.4308 22.3839L48.0036 0.527344H47.7783C47.7783 0.555395 47.7783 0.555397 47.75 0.583677C47.5208 1.24278 45.4959 6.44441 43.4695 11.454C42.5194 13.8874 41.4532 16.5722 40.2899 19.4699L38.3057 24.2715C38.3051 24.2729 38.3046 24.2743 38.3041 24.2756L38.293 24.3025L38.2982 24.3046C38.2966 24.3133 38.293 24.3215 38.293 24.3306C38.293 24.412 38.3589 24.4779 38.4403 24.4779C38.4921 24.4779 38.5356 24.4496 38.5619 24.4091H38.5621L38.5623 24.4084C38.5712 24.3942 38.5774 24.3792 38.5812 24.3623L40.549 19.5764L40.5403 19.573C40.9923 18.4375 41.5994 16.9254 42.2307 15.2841C42.3151 15.2841 42.4277 15.2841 42.5121 15.2841C44.6244 15.2841 45.7789 17.2554 46.7928 19.7055C47.1308 20.5222 47.5252 21.2826 47.9756 21.9866C48.8486 23.3946 49.975 24.4943 51.862 24.493C55.6373 24.49 55.9892 24.493 56.0358 24.493C56.873 24.493 57.5517 23.8143 57.5517 22.9771C57.5515 22.7668 57.5084 22.5668 57.431 22.3845ZM51.8618 24.1833C49.1018 24.1833 48.0036 21.6205 47.0177 19.4521C46.3137 17.8751 45.5816 16.298 44.3423 15.4814C43.779 15.1434 43.1596 14.9744 42.4836 14.9744C42.4553 14.9744 42.3992 14.9744 42.3709 14.9744C42.737 14.0167 43.1313 13.0593 43.5256 12.0739C44.6803 9.20121 45.7223 6.46972 46.173 5.39966C47.5247 8.55375 47.6093 8.77907 52.8192 20.8604C52.8192 20.8885 52.8757 21.0011 52.9035 21.0575C53.2135 21.8461 53.2696 22.3811 53.2696 22.6908C53.2698 23.1693 53.1008 24.1833 51.8618 24.1833Z" fill="#00507D"/>
<path d="M7.94925 7.26358C7.82952 7.1231 7.70683 7.00564 7.57683 6.88112C7.47922 6.78762 7.38115 6.69343 7.284 6.5892C6.57198 5.8252 5.99339 4.76745 5.7366 3.75942C5.69782 3.60707 5.6627 3.45358 5.62735 3.3001C5.53864 2.91262 5.44695 2.51215 5.29278 2.13516C5.15595 1.80082 4.9833 1.54676 4.71556 1.28518L4.64851 1.21835C4.49137 1.06099 4.20037 0.769531 4.00811 0.769531C4.00606 0.769531 4.00401 0.769531 4.00195 0.769531L4.20151 0.837035C4.48339 0.828141 4.59195 0.860755 4.7988 1.06829L4.86403 1.13306C5.1539 1.41608 5.34113 1.69158 5.4896 2.05465C5.65039 2.44783 5.74412 2.85698 5.83466 3.25267C5.86933 3.40456 5.90399 3.55621 5.94254 3.70696C6.19112 4.68192 6.75056 5.70524 7.43954 6.44439C7.53395 6.54565 7.62928 6.63687 7.72393 6.72764C7.8521 6.85034 7.98438 6.97714 8.11095 7.12561L7.94925 7.26358Z" fill="white"/>
<path d="M8.10065 7.5586C8.7285 7.25026 9.48681 7.22289 10.1642 7.54993C10.9585 7.9333 11.4386 8.70711 11.4887 9.53042C11.4951 9.63647 11.762 9.31011 11.7465 9.2214C11.6055 8.40836 11.0896 7.67195 10.2914 7.28652C9.51053 6.90953 8.63408 6.95172 7.91797 7.32346L8.10065 7.5586Z" fill="white"/>
<path d="M36.109 2.21409C36.5748 2.21409 36.9524 1.8365 36.9524 1.37072C36.9524 0.904934 36.5748 0.527344 36.109 0.527344C35.6432 0.527344 35.2656 0.904934 35.2656 1.37072C35.2656 1.8365 35.6432 2.21409 36.109 2.21409Z" fill="#00507D"/>
<path d="M37.4746 22.814C37.4746 22.814 37.4662 22.8072 37.4555 22.7987C37.3665 22.0463 36.7339 21.4605 35.9576 21.4605C35.5133 21.4605 35.1176 21.655 34.8403 21.9595C34.833 21.9674 34.8237 21.9718 34.8166 21.9804C33.3666 23.7497 30.0708 24.1824 26.6057 24.1824H23.5642V13.0742H34.4635V13.0707C34.5641 13.0616 34.6435 12.9886 34.6435 12.8967C34.6435 12.8048 34.5641 12.7318 34.4635 12.7227V12.7193H33.5805C33.3057 11.8543 32.9535 11.0011 32.6085 10.2439C32.5111 10.0302 32.4228 9.83638 32.3556 9.67514C31.9206 8.63176 31.2378 7.40068 30.4284 7.47275C29.8838 7.52019 29.4772 8.11451 29.0842 8.68923C28.7932 9.11502 28.4922 9.55495 28.1547 9.74356C27.4853 10.1171 26.7272 9.87698 26.1263 9.10179C25.5087 8.30495 25.1244 7.31128 24.7853 6.43461C24.723 6.2736 24.6562 6.08408 24.5843 5.88042C24.3173 5.12417 23.9907 4.20075 23.5647 3.74303V0.836611H27.2821C31.5243 0.836611 33.0541 0.940604 34.6626 2.80615C34.74 2.93455 34.8344 3.04972 34.945 3.14983C34.9502 3.15668 34.9557 3.16238 34.9609 3.16923C35.0125 3.23536 35.0665 3.27208 35.1226 3.29283C35.3623 3.45156 35.649 3.54507 35.958 3.54507C36.0059 3.54507 36.0509 3.53526 36.0976 3.53093C36.1015 3.53618 36.1054 3.53959 36.1092 3.54507L36.1131 3.52956C36.8764 3.45088 37.4742 2.81345 37.4742 2.02937C37.4742 1.2608 36.9004 0.632723 36.159 0.533744L36.156 0.526903H36.0901C36.0461 0.523026 36.0034 0.513672 35.9583 0.513672C35.9131 0.513672 35.8707 0.523026 35.8264 0.526903H20.863L20.8644 0.539215C20.4092 0.594178 20.0477 0.942887 19.9766 1.39285C19.9688 1.39148 19.9604 1.39012 19.9604 1.39012C19.9604 1.57599 19.9604 2.86066 19.9604 3.512V21.0005C19.9604 22.1159 19.946 22.9333 19.9319 23.464C19.9319 23.4644 19.9316 23.4649 19.9316 23.4656C19.9316 24.0328 20.3914 24.4925 20.9586 24.4925C20.996 24.4925 35.9124 24.4925 35.9585 24.4925C36.7957 24.4925 37.4744 23.8138 37.4744 22.9766C37.4744 22.9264 37.4644 22.8792 37.4596 22.8304L37.4746 22.814ZM24.3836 5.95112C24.4562 6.15706 24.5239 6.34863 24.5868 6.51124C24.9312 7.40159 25.3214 8.41054 25.9582 9.23201C26.6294 10.098 27.4892 10.3584 28.258 9.9292C28.6391 9.71642 28.9545 9.25528 29.2594 8.80942C29.6245 8.27552 30.0022 7.72338 30.4467 7.68461C30.9705 7.63946 31.5911 8.3948 32.1592 9.75701C32.2272 9.91985 32.3163 10.116 32.4149 10.332C32.7519 11.0716 33.0352 11.8189 33.3237 12.7132L23.564 12.7191V11.0025V10.721V4.0833C23.8917 4.55949 24.1693 5.34402 24.3836 5.95112Z" fill="#00507D"/>
<path d="M8.16069 6.4125C7.59828 5.57323 7.20875 4.47398 7.11844 3.47165C7.10453 3.31679 7.09427 3.16148 7.08423 3.00617C7.05778 2.60113 7.03041 2.18219 6.93417 1.76825C6.85138 1.41248 6.71979 1.1258 6.50792 0.824987C6.40666 0.798532 6.30448 0.77687 6.20117 0.759766C6.21349 0.776642 6.22603 0.793969 6.23675 0.809021L6.2924 0.885649C6.51522 1.18623 6.64521 1.4647 6.72731 1.8166C6.81968 2.21342 6.84636 2.62348 6.87213 3.02008C6.88239 3.17722 6.89266 3.33435 6.90657 3.4908C6.99985 4.52688 7.4026 5.66332 7.98393 6.53087C8.0633 6.64946 8.1454 6.75801 8.22682 6.86589C8.33515 7.00934 8.43755 7.14503 8.53334 7.3024L8.71487 7.19201C8.61362 7.0253 8.50323 6.87911 8.3965 6.73771C8.31736 6.63303 8.23777 6.52767 8.16069 6.4125Z" fill="white"/>
<path d="M8.89779 6.23776C8.52195 5.29997 8.36915 4.1437 8.48888 3.14456C8.50735 2.99016 8.5297 2.83622 8.55205 2.68205C8.56505 2.59174 8.57828 2.50051 8.5906 2.40883C8.52947 2.32947 8.4695 2.24896 8.40564 2.17188C8.38648 2.33334 8.36436 2.49368 8.34155 2.65149C8.31897 2.80726 8.2964 2.96303 8.27769 3.11925C8.15386 4.15214 8.3119 5.34764 8.70029 6.3169C8.75343 6.4494 8.81113 6.57256 8.86838 6.69502C8.94455 6.85786 9.01662 7.0118 9.07774 7.18581L9.2782 7.11535C9.21366 6.9313 9.13612 6.76527 9.06086 6.60494C9.00544 6.48589 8.94934 6.36639 8.89779 6.23776Z" fill="white"/>
<path d="M9.69099 6.31295C9.5724 5.61782 9.5854 4.8424 9.7138 4.11306C9.65929 4.02184 9.60456 3.93061 9.5496 3.83984C9.3749 4.6595 9.34616 5.55487 9.48163 6.34852C9.50558 6.48924 9.53591 6.62175 9.56601 6.75334C9.60615 6.92872 9.64424 7.09429 9.66705 7.27719L9.87801 7.25074C9.85383 7.05712 9.81278 6.87831 9.7731 6.70567C9.7439 6.57818 9.71448 6.44956 9.69099 6.31295Z" fill="white"/>
<path d="M10.5529 5.46875C10.4252 5.83456 10.3276 6.20607 10.2708 6.56846C10.2487 6.70918 10.2352 6.84442 10.2218 6.97898C10.204 7.15801 10.1871 7.32746 10.1504 7.50808L10.3588 7.55027C10.3976 7.35893 10.4156 7.17647 10.4332 6.99995C10.4462 6.8695 10.4592 6.73814 10.4806 6.60153C10.5278 6.30118 10.6054 5.99443 10.7034 5.68997C10.653 5.61653 10.6022 5.5431 10.5529 5.46875Z" fill="white"/>
<path d="M11.3679 6.41406C11.2735 6.59104 11.1852 6.76939 11.1116 6.94819C11.0573 7.08001 11.0123 7.2084 10.9681 7.33612C10.909 7.50602 10.8532 7.66658 10.7754 7.83375L10.9681 7.92338C11.0504 7.7464 11.1106 7.5733 11.1688 7.4059C11.2119 7.28184 11.2552 7.15709 11.3081 7.02915C11.3734 6.8711 11.4505 6.71351 11.5323 6.55683C11.4755 6.51259 11.4208 6.46469 11.3679 6.41406Z" fill="white"/>
<path d="M12.2005 7C12.019 7.21461 11.8534 7.43743 11.7095 7.66412C11.6328 7.78454 11.5665 7.90336 11.5006 8.02149C11.413 8.1784 11.33 8.32687 11.2246 8.47807L11.3989 8.59963C11.5104 8.43976 11.5998 8.27989 11.6862 8.12503C11.7503 8.01032 11.8146 7.89492 11.889 7.77792C12.0395 7.54097 12.4073 7.08621 12.4073 7.08621C12.4073 7.08621 12.2719 6.91562 12.2005 7Z" fill="white"/>
<path d="M18.5668 0.898833C18.6115 0.867361 18.6425 0.817871 18.6425 0.75926C18.6425 0.663246 18.5647 0.585248 18.4685 0.585248C18.4272 0.585248 18.3907 0.601664 18.3608 0.625838L18.3574 0.622421C18.3549 0.62607 18.3517 0.630171 18.349 0.633592C18.3394 0.642714 18.333 0.654117 18.3257 0.665064C17.2301 2.15476 13.8831 6.32807 13.8831 6.32807C13.4044 6.75044 12.982 6.94748 12.6157 6.94748C11.5737 6.94748 10.729 5.31411 9.7996 3.6244C8.84197 1.90641 7.43392 0.554688 5.68787 0.554688C5.57521 0.554688 5.46254 0.554688 5.34988 0.554688C4.01754 0.633141 2.33467 0.663018 1.2662 0.666895C1.18912 0.648422 1.10975 0.636104 1.02697 0.636104C0.459775 0.636104 0 1.09587 0 1.66306C0 1.83183 0.0444706 1.98874 0.116766 2.12899C0.127713 2.16024 0.146415 2.19445 0.172414 2.23162C0.175607 2.23664 0.179256 2.2412 0.182677 2.24599C0.18815 2.25352 0.192255 2.26036 0.198413 2.26789C1.74741 4.21097 4.64586 7.9895 7.0396 11.0309L7.32125 11.3689V21.8616C7.32125 22.044 7.33357 22.2037 7.35432 22.3458C7.33334 22.4561 7.32125 22.5695 7.32125 22.686C7.32125 23.6838 8.12996 24.4925 9.12773 24.4925C10.1255 24.4925 10.9342 23.6838 10.9342 22.686C10.9342 22.5948 10.9253 22.5061 10.9123 22.4185C10.9303 22.1939 10.9313 21.9015 10.926 21.5186V10.609C12.8581 8.14458 16.6686 3.27957 18.5668 0.898833ZM10.757 10.3554L5.04018 3.00521C4.61781 2.4419 4.42076 1.99124 4.42076 1.59715C4.42076 1.5691 4.42076 1.54082 4.42076 1.51277C4.44881 1.11845 4.81508 0.893359 5.51911 0.8368C5.57544 0.8368 5.60349 0.8368 5.65982 0.8368C7.68752 0.8368 8.92658 2.66722 10.053 4.63858C10.6163 5.70865 11.4047 7.08865 12.4187 7.22937C12.5031 7.25742 12.5594 7.25742 12.644 7.25742C12.8693 7.25742 13.0664 7.20109 13.2917 7.08842L10.757 10.3554Z" fill="#00507D"/>
<path d="M75.9218 0.527366L75.9216 0.5L73.074 0.506153C73.0398 0.502275 72.2167 0.419491 71.4329 1.10504C70.5724 1.85765 70.1142 3.20549 70.0714 5.11118C69.9861 8.90111 66.9195 10.4323 65.2786 10.7217H62.7595V2.34023H62.759C62.759 1.33881 61.9473 0.527137 60.9459 0.527137C59.9445 0.527137 59.1328 1.33881 59.1328 2.34023C59.1328 2.41503 59.1328 22.453 59.1328 22.5278C59.1328 23.5292 59.9445 24.3409 60.9459 24.3409C61.9471 24.3409 62.7588 23.5292 62.759 22.528L62.7595 22.5278V11.0029H74.1081V22.5278L74.1085 22.528C74.1087 23.5292 74.9204 24.3409 75.9216 24.3409C76.923 24.3409 77.7347 23.5292 77.7347 22.5278C77.7347 22.4528 77.7347 2.41503 77.7347 2.34023C77.7352 1.33904 76.9233 0.527366 75.9218 0.527366ZM74.1083 10.7217H66.9558C66.6397 10.737 66.4048 10.7448 66.2276 10.748C67.9757 10.1258 70.2695 8.46163 70.3448 5.11711C70.3859 3.29581 70.8105 2.01684 71.6071 1.31578C71.9323 1.02956 72.2669 0.894313 72.5333 0.830456C73.0305 0.778001 74.0903 0.866036 74.1081 2.56783L74.1083 10.7217Z" fill="#00507D"/>
<path d="M9.6816 27.8867H9.93886L8.14856 32.1611H7.89131L8.48427 30.7462L7.32617 27.8867H7.58343L8.24914 29.5523L8.6129 30.4549L9.6816 27.8867Z" fill="#1E1E1E"/>
<path d="M10.9822 30.6232C10.7678 30.495 10.6 30.3176 10.4786 30.0904C10.3573 29.8633 10.2969 29.6081 10.2969 29.3248C10.2969 29.0413 10.3575 28.7861 10.4786 28.559C10.5997 28.3321 10.7676 28.1544 10.9822 28.0262C11.1968 27.8981 11.4381 27.834 11.7068 27.834C11.9788 27.834 12.2222 27.8981 12.4368 28.0262C12.6512 28.1544 12.819 28.3321 12.9403 28.559C13.0614 28.7861 13.1221 29.0413 13.1221 29.3248C13.1221 29.6081 13.0614 29.8633 12.9403 30.0904C12.819 30.3176 12.6512 30.495 12.4368 30.6232C12.2222 30.7516 11.9788 30.8154 11.7068 30.8154C11.4381 30.8154 11.1968 30.7516 10.9822 30.6232ZM12.3109 30.4195C12.4899 30.311 12.6306 30.1604 12.7333 29.9682C12.8359 29.7759 12.8872 29.5615 12.8872 29.3248C12.8872 29.0881 12.8359 28.8735 12.7333 28.6812C12.6306 28.4892 12.4899 28.3387 12.3109 28.2299C12.1319 28.1211 11.9305 28.0668 11.7068 28.0668C11.483 28.0668 11.2816 28.1211 11.1026 28.2299C10.9236 28.3387 10.7838 28.4892 10.683 28.6812C10.5824 28.8735 10.532 29.0881 10.532 29.3248C10.532 29.5615 10.5824 29.7762 10.683 29.9682C10.7838 30.1604 10.9236 30.311 11.1026 30.4195C11.2816 30.5285 11.483 30.5826 11.7068 30.5826C11.9305 30.5826 12.1319 30.5283 12.3109 30.4195Z" fill="#1E1E1E"/>
<path d="M16.271 27.8867V30.7635H16.0473V30.1869C15.9392 30.3774 15.7918 30.5277 15.6053 30.6383C15.4187 30.7489 15.2098 30.8043 14.9786 30.8043C14.6205 30.8043 14.3389 30.6937 14.1338 30.4725C13.9288 30.251 13.8262 29.9425 13.8262 29.5463V27.8867H14.0611V29.5349C14.0611 29.8688 14.142 30.1251 14.3044 30.3035C14.4666 30.4821 14.6969 30.5715 14.9954 30.5715C15.1968 30.5715 15.3768 30.524 15.5353 30.4289C15.6938 30.3338 15.8167 30.2038 15.9045 30.0387C15.9923 29.8736 16.0361 29.6902 16.0361 29.4884V27.8869H16.271V27.8867Z" fill="#1E1E1E"/>
<path d="M19.3689 28.1778C19.576 28.399 19.6793 28.7076 19.6793 29.1037V30.7633H19.4444V29.1151C19.4444 28.7812 19.3623 28.5251 19.1983 28.3465C19.0341 28.168 18.801 28.0786 18.4991 28.0786C18.294 28.0786 18.1102 28.1262 17.9479 28.2213C17.7857 28.3164 17.6598 28.4464 17.5702 28.6115C17.4808 28.7767 17.4361 28.9598 17.4361 29.1618V30.7631H17.2012V27.8863H17.4249V28.4514C17.533 28.2651 17.6822 28.1176 17.8724 28.0088C18.0626 27.9002 18.2751 27.8457 18.51 27.8457C18.8756 27.8457 19.1618 27.9563 19.3689 28.1778Z" fill="#1E1E1E"/>
<path d="M22.9637 30.8542C23.1128 31.0193 23.1874 31.22 23.1874 31.4572C23.1874 31.6626 23.1295 31.8442 23.0141 32.0015C22.8985 32.1587 22.7361 32.2811 22.5274 32.3685C22.3185 32.4558 22.0779 32.4994 21.8056 32.4994C21.5445 32.4994 21.3105 32.4508 21.1034 32.3537C20.8965 32.2565 20.736 32.1215 20.6224 31.9491C20.5086 31.7762 20.4518 31.5812 20.4518 31.3639H20.6867C20.6867 31.5347 20.7342 31.6891 20.8293 31.8268C20.9244 31.9646 21.0566 32.0722 21.2265 32.15C21.3962 32.2278 21.5892 32.2665 21.8056 32.2665C22.1525 32.2665 22.4303 32.1929 22.6392 32.0451C22.8481 31.8978 22.9525 31.7016 22.9525 31.4572C22.9525 31.2124 22.8481 31.0163 22.6392 30.869C22.4303 30.7214 22.1525 30.6475 21.8056 30.6475C21.5185 30.6475 21.2676 30.5903 21.0532 30.4758C20.8388 30.3613 20.6737 30.1992 20.5581 29.9893C20.4425 29.7798 20.3848 29.5332 20.3848 29.25C20.3848 28.9861 20.4463 28.7471 20.5695 28.5336C20.6926 28.3199 20.8623 28.1521 21.0785 28.0298C21.2947 27.9076 21.5353 27.8462 21.8003 27.8462C21.957 27.8462 22.1137 27.8697 22.2704 27.9163C22.4271 27.9628 22.5575 28.0251 22.662 28.1026L23.0143 27.6602L23.1877 27.7997L22.8296 28.2422C22.9712 28.4207 23.0711 28.5838 23.1288 28.7316C23.1865 28.8789 23.2155 29.0518 23.2155 29.2497C23.2155 29.5487 23.1334 29.8147 22.9694 30.0475C22.8052 30.2804 22.5926 30.4338 22.3317 30.5077C22.6038 30.5739 22.8145 30.6895 22.9637 30.8542ZM20.9358 30.1029C21.1465 30.3107 21.4366 30.4145 21.8056 30.4145C22.0218 30.4145 22.2195 30.3629 22.3986 30.2601C22.5776 30.1574 22.7192 30.0167 22.8237 29.8379C22.9281 29.6591 22.9803 29.4632 22.9803 29.2497C22.9803 29.0169 22.9318 28.8121 22.8348 28.6353C22.7379 28.4588 22.5999 28.322 22.4209 28.2248C22.2419 28.1277 22.0366 28.0791 21.8056 28.0791C21.578 28.0791 21.3739 28.1297 21.193 28.2305C21.0122 28.3313 20.8715 28.4705 20.7707 28.6467C20.6701 28.8235 20.6197 29.0244 20.6197 29.2497C20.6199 29.611 20.725 29.8954 20.9358 30.1029Z" fill="#1E1E1E"/>
<path d="M27.3908 28.0116C27.6015 28.1302 27.7636 28.2963 27.8775 28.5097C27.9913 28.7234 28.0483 28.97 28.0483 29.2493C28.0483 29.323 28.0462 29.3793 28.0426 29.4181H25.5083C25.5343 29.7791 25.6518 30.0644 25.8607 30.2742C26.0696 30.4838 26.3399 30.5887 26.6719 30.5887C26.8769 30.5887 27.0729 30.5459 27.2594 30.4603C27.446 30.3751 27.5894 30.2624 27.6902 30.1228L27.8581 30.2683C27.7274 30.4394 27.5577 30.5741 27.349 30.6731C27.1401 30.7721 26.9146 30.8214 26.6721 30.8214C26.4037 30.8214 26.1631 30.7575 25.9506 30.6293C25.738 30.5009 25.572 30.3235 25.4525 30.0964C25.333 29.8692 25.2734 29.6122 25.2734 29.3248C25.2734 29.0375 25.3321 28.7811 25.4495 28.556C25.567 28.3309 25.7312 28.1542 25.9419 28.0262C26.1526 27.8983 26.3923 27.834 26.6607 27.834C26.9367 27.8342 27.18 27.8935 27.3908 28.0116ZM25.8607 28.3729C25.6518 28.5804 25.5343 28.8532 25.5083 29.191H27.8188C27.8188 28.9697 27.7694 28.7738 27.6706 28.6028C27.5716 28.4322 27.4357 28.2992 27.2621 28.2039C27.0888 28.1088 26.8881 28.0614 26.6607 28.0614C26.3362 28.0614 26.0694 28.1651 25.8607 28.3729Z" fill="#1E1E1E"/>
<path d="M29.6427 29.261L30.728 30.7635H30.4373L29.5029 29.459L28.893 30.3094L28.563 30.7635H28.2832L29.3574 29.261L28.3671 27.8867H28.6579L29.4972 29.0631L29.9446 28.4576L30.3531 27.8867H30.6441L29.6427 29.261Z" fill="#1E1E1E"/>
<path d="M33.4156 28.0289C33.6263 28.1553 33.7905 28.3306 33.908 28.556C34.0254 28.7813 34.0843 29.0374 34.0843 29.3248C34.0843 29.6121 34.0254 29.8682 33.908 30.0933C33.7905 30.3184 33.6263 30.4943 33.4156 30.6204C33.2049 30.7467 32.9652 30.8097 32.6968 30.8097C32.4318 30.8097 32.1959 30.7495 31.9891 30.6293C31.782 30.5091 31.6262 30.3437 31.522 30.1341V32.1607H31.2871V27.8861H31.5108V28.5268C31.6116 28.3172 31.7674 28.1505 31.9779 28.0262C32.1884 27.9019 32.4283 27.8398 32.6968 27.8398C32.9654 27.8396 33.2051 27.903 33.4156 28.0289ZM33.287 30.4252C33.464 30.3205 33.6019 30.1731 33.7009 29.9827C33.7997 29.7925 33.8492 29.5731 33.8492 29.3248C33.8492 29.0762 33.7997 28.8568 33.7009 28.6666C33.6019 28.4764 33.464 28.3288 33.287 28.2241C33.1098 28.1192 32.9093 28.067 32.6856 28.067C32.458 28.067 32.2566 28.1192 32.0815 28.2241C31.9061 28.3288 31.769 28.4764 31.6703 28.6666C31.5713 28.8568 31.522 29.0762 31.522 29.3248C31.522 29.5731 31.5713 29.7925 31.6703 29.9827C31.769 30.1731 31.9061 30.3205 32.0815 30.4252C32.2568 30.5301 32.4582 30.5823 32.6856 30.5823C32.9095 30.5825 33.11 30.5301 33.287 30.4252Z" fill="#1E1E1E"/>
<path d="M34.8223 26.6875H35.0572V30.7639H34.8223V26.6875Z" fill="#1E1E1E"/>
<path d="M36.4822 30.6232C36.2678 30.495 36.1 30.3176 35.9786 30.0904C35.8573 29.8633 35.7969 29.6081 35.7969 29.3248C35.7969 29.0413 35.8575 28.7861 35.9786 28.559C36.0997 28.3321 36.2676 28.1544 36.4822 28.0262C36.6968 27.8981 36.9381 27.834 37.2068 27.834C37.4788 27.834 37.7222 27.8981 37.9368 28.0262C38.1512 28.1544 38.319 28.3321 38.4403 28.559C38.5614 28.7861 38.6221 29.0413 38.6221 29.3248C38.6221 29.6081 38.5614 29.8633 38.4403 30.0904C38.319 30.3176 38.1512 30.495 37.9368 30.6232C37.7222 30.7516 37.4788 30.8154 37.2068 30.8154C36.9381 30.8154 36.6968 30.7516 36.4822 30.6232ZM37.8109 30.4195C37.9899 30.311 38.1306 30.1604 38.2333 29.9682C38.3359 29.7759 38.3872 29.5615 38.3872 29.3248C38.3872 29.0881 38.3359 28.8735 38.2333 28.6812C38.1306 28.4892 37.9899 28.3387 37.8109 28.2299C37.6319 28.1211 37.4305 28.0668 37.2068 28.0668C36.983 28.0668 36.7816 28.1211 36.6026 28.2299C36.4236 28.3387 36.2838 28.4892 36.183 28.6812C36.0824 28.8735 36.032 29.0881 36.032 29.3248C36.032 29.5615 36.0824 29.7762 36.183 29.9682C36.2838 30.1604 36.4236 30.311 36.6026 30.4195C36.7816 30.5285 36.983 30.5826 37.2068 30.5826C37.4305 30.5826 37.6319 30.5283 37.8109 30.4195Z" fill="#1E1E1E"/>
<path d="M41.1049 28.0146L40.9988 28.2241C40.8609 28.1389 40.7058 28.096 40.5343 28.096C40.3628 28.096 40.2052 28.1482 40.0617 28.2531C39.9178 28.3578 39.8052 28.5015 39.7233 28.6839C39.6414 28.8666 39.6004 29.0666 39.6004 29.2839V30.7629H39.3652V27.8862H39.5892V28.5268C39.6859 28.3172 39.8173 28.1532 39.9835 28.0349C40.1493 27.9165 40.335 27.8574 40.5402 27.8574C40.7601 27.8572 40.948 27.9096 41.1049 28.0146Z" fill="#1E1E1E"/>
<path d="M43.3788 28.0116C43.5895 28.1302 43.7519 28.2963 43.8657 28.5097C43.9793 28.7234 44.0363 28.97 44.0363 29.2493C44.0363 29.323 44.0343 29.3793 44.0309 29.4181H41.4966C41.5226 29.7791 41.6401 30.0644 41.849 30.2742C42.0579 30.4838 42.3284 30.5887 42.6604 30.5887C42.8652 30.5887 43.0614 30.5459 43.2477 30.4603C43.434 30.3751 43.5777 30.2624 43.6785 30.1228L43.8463 30.2683C43.7157 30.4394 43.5462 30.5741 43.3373 30.6731C43.1284 30.7721 42.9029 30.8214 42.6604 30.8214C42.3918 30.8214 42.1514 30.7575 41.9386 30.6293C41.7261 30.5009 41.56 30.3235 41.4407 30.0964C41.3215 29.8692 41.2617 29.6122 41.2617 29.3248C41.2617 29.0375 41.3206 28.7811 41.4378 28.556C41.5555 28.3309 41.7192 28.1542 41.9302 28.0262C42.1409 27.8981 42.3806 27.834 42.6488 27.834C42.9247 27.8342 43.1683 27.8935 43.3788 28.0116ZM41.8487 28.3729C41.6398 28.5804 41.5224 28.8532 41.4964 29.191H43.8069C43.8069 28.9697 43.7574 28.7738 43.6586 28.6028C43.5597 28.4322 43.4237 28.2992 43.2504 28.2039C43.0769 28.1088 42.8764 28.0614 42.6488 28.0614C42.3245 28.0614 42.0577 28.1651 41.8487 28.3729Z" fill="#1E1E1E"/>
<path d="M46.4701 28.0146L46.3639 28.2241C46.2259 28.1389 46.071 28.096 45.8995 28.096C45.7278 28.096 45.5704 28.1482 45.4267 28.2531C45.2831 28.3578 45.1704 28.5015 45.0883 28.6839C45.0064 28.8666 44.9654 29.0666 44.9654 29.2839V30.7629H44.7305V27.8862H44.9542V28.5268C45.0511 28.3172 45.1825 28.1532 45.3485 28.0349C45.5146 27.9165 45.7002 27.8574 45.9052 27.8574C46.1251 27.8572 46.3135 27.9096 46.4701 28.0146Z" fill="#1E1E1E"/>
<path d="M47.2145 30.6702C46.9981 30.573 46.8302 30.4487 46.7109 30.2973L46.8564 30.1342C46.9721 30.2701 47.123 30.3787 47.3096 30.4603C47.4959 30.5418 47.6973 30.5826 47.9135 30.5826C48.1858 30.5826 48.4038 30.5294 48.568 30.4225C48.7323 30.3158 48.8144 30.1732 48.8144 29.9946C48.8144 29.8859 48.7863 29.7967 48.7304 29.7267C48.6746 29.6567 48.5801 29.5967 48.4479 29.546C48.3156 29.4956 48.1242 29.4452 47.8745 29.3946C47.6022 29.3406 47.3894 29.2813 47.2366 29.2172C47.0836 29.1531 46.9737 29.0735 46.9066 28.9784C46.8396 28.8833 46.806 28.762 46.806 28.6144C46.806 28.3736 46.9066 28.1834 47.108 28.0436C47.3096 27.904 47.5817 27.834 47.9249 27.834C48.145 27.834 48.3395 27.8652 48.5094 27.927C48.6789 27.9891 48.8383 28.0842 48.9877 28.2126L48.8534 28.3873C48.7193 28.2748 48.5801 28.1923 48.4367 28.1398C48.293 28.0874 48.1242 28.0611 47.9304 28.0611C47.6469 28.0611 47.4277 28.1097 47.2729 28.2066C47.118 28.3038 47.0407 28.4395 47.0407 28.6144C47.0407 28.7191 47.0667 28.8035 47.1192 28.8676C47.1714 28.9316 47.2578 28.9868 47.3794 29.0336C47.5005 29.0801 47.6768 29.1269 47.9078 29.1734C48.1952 29.2277 48.4198 29.289 48.582 29.3568C48.7443 29.4249 48.8618 29.5102 48.9345 29.6131C49.0071 29.7159 49.0436 29.8453 49.0436 30.0003C49.0436 30.2448 48.9402 30.4421 48.7332 30.5915C48.5263 30.7409 48.2531 30.8154 47.9135 30.8154C47.6638 30.8157 47.4307 30.7671 47.2145 30.6702Z" fill="#1E1E1E"/>
<path d="M53.8592 27.8866V30.7634H53.6357L53.63 30.1227C53.5256 30.3364 53.3682 30.5041 53.1575 30.6265C52.9468 30.7488 52.7089 30.8099 52.4441 30.8099C52.1757 30.8099 51.9369 30.747 51.728 30.6206C51.5191 30.4945 51.356 30.3189 51.2386 30.0936C51.1211 29.8685 51.0625 29.6123 51.0625 29.325C51.0625 29.0376 51.1213 28.7813 51.2386 28.5562C51.3562 28.3311 51.5191 28.1555 51.728 28.0291C51.9369 27.903 52.1757 27.8398 52.4441 27.8398C52.7089 27.8398 52.9468 27.9019 53.1575 28.0262C53.3682 28.1505 53.5256 28.3192 53.63 28.5329L53.6357 27.8864H53.8592V27.8866ZM53.0622 30.4256C53.2391 30.3209 53.3773 30.1736 53.4761 29.9832C53.5748 29.793 53.6241 29.5736 53.6241 29.3252C53.6241 29.0766 53.5746 28.8572 53.4761 28.667C53.3771 28.4768 53.2391 28.3293 53.0622 28.2246C52.8849 28.1197 52.6845 28.0675 52.4608 28.0675C52.2331 28.0675 52.0318 28.1197 51.8566 28.2246C51.681 28.3293 51.5442 28.4768 51.4454 28.667C51.3464 28.8572 51.2972 29.0766 51.2972 29.3252C51.2972 29.5736 51.3467 29.793 51.4454 29.9832C51.5442 30.1736 51.681 30.3209 51.8566 30.4256C52.032 30.5305 52.2331 30.5827 52.4608 30.5827C52.6845 30.583 52.8849 30.5305 53.0622 30.4256Z" fill="#1E1E1E"/>
<path d="M56.9507 28.1778C57.1578 28.399 57.2611 28.7076 57.2611 29.1037V30.7633H57.0264V29.1151C57.0264 28.7812 56.9443 28.5251 56.7801 28.3465C56.6159 28.168 56.3831 28.0786 56.0809 28.0786C55.8758 28.0786 55.6923 28.1262 55.5299 28.2213C55.3677 28.3164 55.2418 28.4464 55.1524 28.6115C55.063 28.7767 55.0181 28.9598 55.0181 29.1618V30.7631H54.7832V27.8863H55.0069V28.4514C55.115 28.2651 55.2642 28.1176 55.4544 28.0088C55.6446 27.9002 55.8574 27.8457 56.0923 27.8457C56.4576 27.8457 56.7439 27.9563 56.9507 28.1778Z" fill="#1E1E1E"/>
<path d="M60.7635 26.6875V30.7639H60.54L60.5343 30.1292C60.4299 30.3388 60.2725 30.5046 60.0618 30.6273C59.851 30.7495 59.6132 30.8106 59.3484 30.8106C59.0836 30.8106 58.846 30.7477 58.6352 30.6213C58.4243 30.4952 58.2603 30.3196 58.1429 30.0943C58.0254 29.8692 57.9668 29.6131 57.9668 29.3257C57.9668 29.0384 58.0256 28.782 58.1429 28.5569C58.2605 28.3318 58.4243 28.1562 58.6352 28.0299C58.846 27.9037 59.0836 27.8406 59.3484 27.8406C59.6132 27.8406 59.8499 27.901 60.0588 28.0212C60.2677 28.1414 60.4244 28.3065 60.5288 28.5161V26.6875H60.7635ZM59.9664 30.4259C60.1434 30.3212 60.2816 30.1739 60.3804 29.9834C60.4791 29.7932 60.5284 29.5738 60.5284 29.3255C60.5284 29.0769 60.4789 28.8575 60.3804 28.6673C60.2814 28.4771 60.1434 28.3295 59.9664 28.2249C59.7892 28.12 59.5888 28.0677 59.365 28.0677C59.1374 28.0677 58.9361 28.12 58.7609 28.2249C58.5853 28.3295 58.4485 28.4771 58.3497 28.6673C58.2507 28.8575 58.2015 29.0769 58.2015 29.3255C58.2015 29.5738 58.251 29.7932 58.3497 29.9834C58.4485 30.1739 58.5853 30.3212 58.7609 30.4259C58.9363 30.5308 59.1374 30.583 59.365 30.583C59.5888 30.5832 59.789 30.5308 59.9664 30.4259Z" fill="#1E1E1E"/>
<path d="M65.353 28.1786C65.5601 28.3998 65.6634 28.7084 65.6634 29.1045V30.7641H65.4288V29.1159C65.4288 28.782 65.3467 28.5259 65.1825 28.3473C65.0183 28.1688 64.7854 28.0794 64.4832 28.0794C64.2782 28.0794 64.0946 28.127 63.9322 28.2221C63.7701 28.3172 63.6442 28.4472 63.5548 28.6123C63.4654 28.7775 63.4205 28.9606 63.4205 29.1627V30.7639H63.1855V26.6875H63.4205V28.4461C63.5286 28.26 63.6768 28.1133 63.8652 28.0064C64.0533 27.8997 64.2631 27.8463 64.4946 27.8463C64.86 27.8465 65.1462 27.9571 65.353 28.1786Z" fill="#1E1E1E"/>
<path d="M66.5527 28.1152H66.7876V30.7639H66.5527V28.1152Z" fill="#1E1E1E"/>
<path d="M69.7808 30.7639H69.4451L67.9458 29.3896V30.7639H67.7109V26.6875H67.9458V29.2092L69.2939 27.8871H69.6128L68.175 29.2965L69.7808 30.7639Z" fill="#1E1E1E"/>
<path d="M72.0663 28.0116C72.277 28.1302 72.4394 28.2963 72.5532 28.5097C72.6668 28.7234 72.7238 28.97 72.7238 29.2493C72.7238 29.323 72.7218 29.3793 72.7184 29.4181H70.1841C70.2101 29.7791 70.3276 30.0644 70.5365 30.2742C70.7454 30.4838 71.0159 30.5887 71.3479 30.5887C71.5527 30.5887 71.7489 30.5459 71.9352 30.4603C72.1215 30.3751 72.2652 30.2624 72.366 30.1228L72.5339 30.2683C72.4032 30.4394 72.2337 30.5741 72.0248 30.6731C71.8159 30.7721 71.5904 30.8214 71.3479 30.8214C71.0793 30.8214 70.8389 30.7575 70.6261 30.6293C70.4136 30.5009 70.2475 30.3235 70.1282 30.0964C70.009 29.8692 69.9492 29.6122 69.9492 29.3248C69.9492 29.0375 70.0081 28.7811 70.1253 28.556C70.243 28.3309 70.4067 28.1542 70.6177 28.0262C70.8284 27.8981 71.0681 27.834 71.3363 27.834C71.6122 27.8342 71.8558 27.8935 72.0663 28.0116ZM70.5363 28.3729C70.3273 28.5804 70.2099 28.8532 70.1839 29.191H72.4944C72.4944 28.9697 72.4449 28.7738 72.3461 28.6028C72.2472 28.4322 72.1112 28.2992 71.9379 28.2039C71.7644 28.1088 71.5639 28.0614 71.3363 28.0614C71.012 28.0614 70.7452 28.1651 70.5363 28.3729Z" fill="#1E1E1E"/>
<path d="M75.1576 28.0146L75.0513 28.2241C74.9134 28.1389 74.7585 28.096 74.587 28.096C74.4153 28.096 74.2579 28.1482 74.1142 28.2531C73.9706 28.3578 73.8579 28.5015 73.7758 28.6839C73.6939 28.8666 73.6529 29.0666 73.6529 29.2839V30.7629H73.418V27.8862H73.6417V28.5268C73.7386 28.3172 73.87 28.1532 74.036 28.0349C74.202 27.9165 74.3877 27.8574 74.5927 27.8574C74.8126 27.8572 75.0009 27.9096 75.1576 28.0146Z" fill="#1E1E1E"/>
<path d="M75.902 30.6702C75.6856 30.573 75.5177 30.4487 75.3984 30.2973L75.5439 30.1342C75.6596 30.2701 75.8105 30.3787 75.9971 30.4603C76.1834 30.5418 76.3848 30.5826 76.601 30.5826C76.8733 30.5826 77.0913 30.5294 77.2555 30.4225C77.4198 30.3158 77.5019 30.1732 77.5019 29.9946C77.5019 29.8859 77.4738 29.7967 77.4179 29.7267C77.362 29.6567 77.2676 29.5967 77.1354 29.546C77.0031 29.4956 76.8117 29.4452 76.562 29.3946C76.2897 29.3406 76.0769 29.2813 75.9241 29.2172C75.7711 29.1531 75.6612 29.0735 75.5941 28.9784C75.5271 28.8833 75.4935 28.762 75.4935 28.6144C75.4935 28.3736 75.5941 28.1834 75.7955 28.0436C75.9971 27.904 76.2692 27.834 76.6124 27.834C76.8325 27.834 77.027 27.8652 77.1969 27.927C77.3664 27.9891 77.5258 28.0842 77.6752 28.2126L77.5409 28.3873C77.4067 28.2748 77.2676 28.1923 77.1242 28.1398C76.9805 28.0874 76.8117 28.0611 76.6179 28.0611C76.3344 28.0611 76.1152 28.1097 75.9604 28.2066C75.8055 28.3038 75.7282 28.4395 75.7282 28.6144C75.7282 28.7191 75.7542 28.8035 75.8067 28.8676C75.8589 28.9316 75.9453 28.9868 76.0669 29.0336C76.188 29.0801 76.3643 29.1269 76.5953 29.1734C76.8827 29.2277 77.1073 29.289 77.2695 29.3568C77.4318 29.4249 77.5493 29.5102 77.622 29.6131C77.6946 29.7159 77.7311 29.8453 77.7311 30.0003C77.7311 30.2448 77.6277 30.4421 77.4207 30.5915C77.2138 30.7409 76.9406 30.8154 76.601 30.8154C76.3513 30.8157 76.1182 30.7671 75.902 30.6702Z" fill="#1E1E1E"/>
<path d="M66.9671 26.8085C66.8798 26.7305 66.774 26.7025 66.7156 26.6927C66.6882 26.6881 66.6499 26.6881 66.6164 26.6945C66.5564 26.7059 66.4576 26.7351 66.3753 26.8085C66.3046 26.8717 66.1842 27.0389 66.2654 27.3016C66.3504 27.5769 66.6711 27.8229 66.6711 27.8229C66.6711 27.8229 66.9918 27.5769 67.0768 27.3016C67.1582 27.0389 67.0378 26.8717 66.9671 26.8085ZM66.8374 27.2726C66.7922 27.3169 66.737 27.3392 66.6713 27.3392C66.6015 27.3392 66.5452 27.3169 66.5021 27.2726C66.459 27.2284 66.4373 27.1725 66.4373 27.1046C66.4373 27.0373 66.459 26.9803 66.5021 26.9337C66.5452 26.8872 66.6013 26.8642 66.6713 26.8642C66.737 26.8642 66.7922 26.8874 66.8374 26.9337C66.8823 26.9803 66.9051 27.0373 66.9051 27.1046C66.9051 27.1725 66.8823 27.2284 66.8374 27.2726Z" fill="#1E1E1E"/>
</svg>
